<?xml version="1.0" encoding="UTF-8" standalone="no"?>
<svg
   xmlns:dc="http://purl.org/dc/elements/1.1/"
   xmlns:cc="http://creativecommons.org/ns#"
   xmlns:rdf="http://www.w3.org/1999/02/22-rdf-syntax-ns#"
   xmlns:svg="http://www.w3.org/2000/svg"
   xmlns="http://www.w3.org/2000/svg"
   xmlns:sodipodi="http://sodipodi.sourceforge.net/DTD/sodipodi-0.dtd"
   xmlns:inkscape="http://www.inkscape.org/namespaces/inkscape"
   width="67.163918mm"
   height="67.123222mm"
   viewBox="0 0 237.98238 237.83819"
   id="svg2"
   version="1.1"
   inkscape:version="1.0.1 (3bc2e813f5, 2020-09-07)"
   sodipodi:docname="cv.svg">
  <defs
     id="defs4" />
  <sodipodi:namedview
     id="base"
     pagecolor="#ffffff"
     bordercolor="#666666"
     borderopacity="1.0"
     inkscape:pageopacity="0.0"
     inkscape:pageshadow="2"
     inkscape:zoom="0.70710678"
     inkscape:cx="169.91136"
     inkscape:cy="196.90837"
     inkscape:document-units="px"
     inkscape:current-layer="layer2"
     showgrid="false"
     fit-margin-top="0"
     fit-margin-left="0"
     fit-margin-right="0"
     fit-margin-bottom="0"
     inkscape:window-width="1920"
     inkscape:window-height="1027"
     inkscape:window-x="-8"
     inkscape:window-y="1072"
     inkscape:window-maximized="1"
     inkscape:document-rotation="0" />
  <metadata
     id="metadata7">
    <rdf:RDF>
      <cc:Work
         rdf:about="">
        <dc:format>image/svg+xml</dc:format>
        <dc:type
           rdf:resource="http://purl.org/dc/dcmitype/StillImage" />
        <dc:title />
      </cc:Work>
    </rdf:RDF>
  </metadata>
  <g
     inkscape:groupmode="layer"
     id="layer2"
     inkscape:label="Layer 2"
     style="display:inline"
     transform="translate(78.806763,32.73671)">
    <path
       style="display:inline;fill:#000000;fill-opacity:1;stroke:none;stroke-width:7.5;stroke-linecap:butt;stroke-linejoin:miter;stroke-miterlimit:4;stroke-dasharray:none;stroke-opacity:1"
       d="m -686.67104,-214.60223 c -12.26031,0 -22.13012,9.86982 -22.13012,22.13013 V -6.3948238 c 0,12.2603159 9.86981,22.1301288 22.13012,22.1301288 h 186.22193 c 12.26032,0 22.13013,-9.8698129 22.13013,-22.1301288 V -192.4721 c 0,-12.26031 -9.86981,-22.13013 -22.13013,-22.13013 z m 28.76038,29.65943 a 23.002689,22.807996 0 0 1 23.00354,22.80762 23.002689,22.807996 0 0 1 -23.00354,22.80761 23.002689,22.807996 0 0 1 -23.00354,-22.80761 23.002689,22.807996 0 0 1 23.00354,-22.80762 z m 107.34375,57.33765 c 20.2233,0.0915 38.07885,14.96355 38.43018,43.024287 0.0331,3.169791 0.44753,56.126608 0.1831,68.966683 -11.90236,0.194053 -29.17493,0.05826 -33.57787,0.05126 0,-6.864262 -0.26283,-59.569735 -0.13185,-67.388307 -2.11581,-21.281593 -36.89181,-16.788301 -38.39538,2.841797 l 0.17944,64.581301 -34.46228,0.01099 0.22889,-110.031741 31.82373,-0.16296 0.033,14.24926 c 10.56998,-10.9307 23.55511,-16.19745 35.68909,-16.14257 z m -123.90198,0.32592 h 34.42383 v 111.842659 h -34.42383 z"
       id="rect3518" />
    <g
       transform="matrix(0.93750001,0,0,0.93750001,-268.41493,-563.45025)"
       id="g4876">
      <path
         d="m 633.9,812.04 c 112.46,0 173.96,-93.168 173.96,-173.96 0,-2.6463 -0.0539,-5.2806 -0.1726,-7.903 11.938,-8.6302 22.314,-19.4 30.498,-31.66 -10.955,4.8694 -22.9315,7.5224 -35.111,9.6255 12.1855,-7.9443 22.314,-19.543 26.886,-33.817 -11.813,7.0031 -24.895,12.093 -38.824,14.841 -11.157,-11.884 -27.041,-19.317 -44.629,-19.317 -33.764,0 -61.144,27.381 -61.144,61.132 0,4.7978 0.5364,9.4646 1.5854,13.941 -50.815,-2.5569 -95.874,-26.886 -126.03,-63.88 -5.2508,9.0354 -8.2785,19.531 -8.2785,30.73 0,21.212 10.794,39.938 27.208,50.893 -10.031,-0.30992 -19.454,-3.0635 -27.69,-7.6468 -0.009,0.25652 -0.009,0.50661 -0.009,0.78077 0,29.61 23.19632,53.62489 49.051,59.934 -5.1376,1.4006 -10.543,2.1516 -16.122,2.1516 -3.9336,0 -7.766,-0.38716 -11.491,-1.1026 7.7838,24.293 30.355,41.971 57.115,42.465 -20.926,16.402 -47.287,26.171 -75.937,26.171 -4.929,0 -8.56086,-0.10358 -14.584,-0.84634 25.46801,19.11177 59.189,27.464 93.722,27.464"
         id="path4878"
         style="fill:none;fill-opacity:1;stroke:#000022;stroke-width:8;stroke-miterlimit:4;stroke-dasharray:none;stroke-opacity:1"
         inkscape:connector-curvature="0"
         sodipodi:nodetypes="cscccccssccsccscsccscc" />
    </g>
    <path
       d="m -274.24316,-30.602531 c -64.18398,0 -116.23624,52.045117 -116.23624,116.250511 0,51.35289 33.30517,94.92721 79.49851,110.30595 5.81609,1.06331 7.93558,-2.52625 7.93558,-5.60913 0,-2.76176 -0.0999,-10.06934 -0.157,-19.76758 -32.33463,7.02213 -39.15694,-15.58571 -39.15694,-15.58571 -5.28801,-13.43054 -12.90959,-17.00583 -12.90959,-17.00583 -10.5546,-7.20767 0.79927,-7.06495 0.79927,-7.06495 11.66787,0.82068 17.8051,11.98187 17.8051,11.98187 10.36906,17.76228 27.21075,12.63127 33.83325,9.65543 1.05617,-7.5074 4.06056,-12.63127 7.37894,-15.53575 -25.81203,-2.94016 -52.95143,-12.90959 -52.95143,-57.45444 0,-12.695498 4.53156,-23.064558 11.9676,-31.192816 -1.1989,-2.94016 -5.1881,-14.757891 1.14181,-30.764637 0,0 9.75533,-3.125704 31.96354,11.910503 9.27006,-2.576208 19.21808,-3.860744 29.10187,-3.910698 9.87666,0.05138 19.81754,1.33449 29.10188,3.910698 22.19398,-15.036207 31.93505,-11.910503 31.93505,-11.910503 6.34418,16.006746 2.35498,27.824477 1.16322,30.764637 7.4503,8.128258 11.94618,18.497318 11.94618,31.192816 0,44.65903 -27.18221,54.48574 -53.0728,57.36167 4.1676,3.58956 7.88562,10.68306 7.88562,21.53025 0,15.53575 -0.14272,28.07425 -0.14272,31.88504 0,3.11143 2.09807,6.72953 7.99272,5.59486 46.15766,-15.40729 79.43428,-58.94592 79.43428,-110.29168 0,-64.205394 -52.05225,-116.250511 -116.2577,-116.250511"
       style="fill:none;fill-opacity:1;fill-rule:evenodd;stroke:#000022;stroke-width:7.5;stroke-miterlimit:4;stroke-dasharray:none;stroke-opacity:1"
       id="path24"
       inkscape:connector-curvature="0" />
    <path
       id="path837"
       style="fill:#000000;fill-opacity:1;stroke:none;stroke-width:16.7905;stroke-linecap:round;stroke-linejoin:round;stroke-miterlimit:4;stroke-dasharray:none;stroke-opacity:1"
       d="m 53.514754,-32.545805 c -18.600329,0.09039 -37.200901,0.01891 -55.801399,0.04211 -22.414444,0.005 -44.829929,-0.01 -67.243651,0.0293 -4.173066,0.343847 -8.137303,3.567834 -8.713988,7.820438 -0.448734,2.780775 -0.09094,5.604562 -0.2124,8.404537 0.0029,70.613908 -0.0074,141.22852 0.01464,211.84205 0.301547,3.82483 2.826384,7.69845 6.697997,8.63892 2.952497,0.86959 6.05056,0.32543 9.072882,0.48522 56.3138445,-0.003 112.628768,0.008 168.942265,-0.0146 3.81653,-0.30194 7.68104,-2.8148 8.6316,-6.6742 0.87668,-2.93177 0.33187,-6.01461 0.47974,-9.01794 -0.009,-3.91115 -0.0202,-7.82225 -0.0293,-11.73341 L 157.07921,76.451387 c 1.56551,-3.400734 2.53598,-10.061643 -6.89758,-10.061643 H 115.0858 l -0.002,0.199584 c -0.0305,-11.869557 -0.0516,-23.739085 -0.0861,-35.60852 -0.21322,-3.371578 -2.4231,-6.166134 -4.76624,-8.415534 -16.249515,-17.4772036 -32.456915,-34.995038 -48.749794,-52.43042 -2.166562,-1.903088 -5.114147,-2.763497 -7.966912,-2.680659 z M 13.757056,83.695038 c 13.531059,0 24.825835,5.165643 32.206425,14.556878 L 34.33445,109.52207 c -5.255869,-6.33908 -11.854116,-9.627684 -19.682007,-9.627684 -14.64933801,0 -25.048829,10.800224 -25.048829,26.295774 0,15.49554 10.39949099,26.29577 25.048829,26.29577 7.827891,0 14.426138,-3.28654 19.682007,-9.74303 l 11.629031,11.27014 c -7.38059,9.50864 -18.675225,14.67224 -32.318119,14.67224 -24.266466,0 -42.381592,-17.72573 -42.381592,-42.49512 0,-24.7694 18.114985,-42.495122 42.493286,-42.495122 z m 33.660282,1.409915 H 66.987651 L 90.806015,143.79941 114.96129,85.104953 h 18.00293 L 99.080547,167.2772 H 81.189313 Z" />
  </g>
  <g
     inkscape:groupmode="layer"
     id="layer3"
     inkscape:label="Layer 3"
     transform="translate(78.806763,32.73671)" />
</svg>
