<?xml version="1.0" encoding="UTF-8" standalone="no"?>
<!-- Created with Inkscape (http://www.inkscape.org/) -->

<svg
   xmlns:dc="http://purl.org/dc/elements/1.1/"
   xmlns:cc="http://creativecommons.org/ns#"
   xmlns:rdf="http://www.w3.org/1999/02/22-rdf-syntax-ns#"
   xmlns:svg="http://www.w3.org/2000/svg"
   xmlns="http://www.w3.org/2000/svg"
   xmlns:sodipodi="http://sodipodi.sourceforge.net/DTD/sodipodi-0.dtd"
   xmlns:inkscape="http://www.inkscape.org/namespaces/inkscape"
   width="69.001617mm"
   height="67.372673mm"
   viewBox="0 0 244.49392 238.72207"
   id="svg2"
   version="1.1"
   inkscape:version="0.92.2 (5c3e80d, 2017-08-06)"
   sodipodi:docname="github.svg">
  <defs
     id="defs4" />
  <sodipodi:namedview
     id="base"
     pagecolor="#ffffff"
     bordercolor="#666666"
     borderopacity="1.0"
     inkscape:pageopacity="0.0"
     inkscape:pageshadow="2"
     inkscape:zoom="1.4142136"
     inkscape:cx="162.40675"
     inkscape:cy="103.87962"
     inkscape:document-units="px"
     inkscape:current-layer="layer2"
     showgrid="false"
     fit-margin-top="0"
     fit-margin-left="0"
     fit-margin-right="0"
     fit-margin-bottom="0"
     inkscape:window-width="2560"
     inkscape:window-height="1376"
     inkscape:window-x="0"
     inkscape:window-y="27"
     inkscape:window-maximized="1"
     inkscape:document-rotation="0" />
  <metadata
     id="metadata7">
    <rdf:RDF>
      <cc:Work
         rdf:about="">
        <dc:format>image/svg+xml</dc:format>
        <dc:type
           rdf:resource="http://purl.org/dc/dcmitype/StillImage" />
        <dc:title />
      </cc:Work>
    </rdf:RDF>
  </metadata>
  <g
     inkscape:groupmode="layer"
     id="layer2"
     inkscape:label="Layer 2"
     style="display:inline"
     transform="translate(396.4794,36.602531)">
    <rect
       style="display:inline;fill:none;fill-opacity:1;stroke:#000022;stroke-width:7.5;stroke-linecap:butt;stroke-linejoin:miter;stroke-miterlimit:4;stroke-dasharray:none;stroke-opacity:1"
       id="rect3518"
       width="230.48239"
       height="230.33818"
       x="-75.056763"
       y="-28.98671"
       ry="22.130533" />
    <g
       transform="matrix(0.93750001,0,0,0.93750001,-268.41493,-563.45025)"
       id="g4876">
      <path
         d="m 633.9,812.04 c 112.46,0 173.96,-93.168 173.96,-173.96 0,-2.6463 -0.0539,-5.2806 -0.1726,-7.903 11.938,-8.6302 22.314,-19.4 30.498,-31.66 -10.955,4.8694 -22.9315,7.5224 -35.111,9.6255 12.1855,-7.9443 22.314,-19.543 26.886,-33.817 -11.813,7.0031 -24.895,12.093 -38.824,14.841 -11.157,-11.884 -27.041,-19.317 -44.629,-19.317 -33.764,0 -61.144,27.381 -61.144,61.132 0,4.7978 0.5364,9.4646 1.5854,13.941 -50.815,-2.5569 -95.874,-26.886 -126.03,-63.88 -5.2508,9.0354 -8.2785,19.531 -8.2785,30.73 0,21.212 10.794,39.938 27.208,50.893 -10.031,-0.30992 -19.454,-3.0635 -27.69,-7.6468 -0.009,0.25652 -0.009,0.50661 -0.009,0.78077 0,29.61 23.19632,53.62489 49.051,59.934 -5.1376,1.4006 -10.543,2.1516 -16.122,2.1516 -3.9336,0 -7.766,-0.38716 -11.491,-1.1026 7.7838,24.293 30.355,41.971 57.115,42.465 -20.926,16.402 -47.287,26.171 -75.937,26.171 -4.929,0 -8.56086,-0.10358 -14.584,-0.84634 25.46801,19.11177 59.189,27.464 93.722,27.464"
         id="path4878"
         style="fill:none;fill-opacity:1;stroke:#000022;stroke-width:7.99999991;stroke-miterlimit:4;stroke-dasharray:none;stroke-opacity:1"
         inkscape:connector-curvature="0"
         sodipodi:nodetypes="cscccccssccsccscsccscc" />
    </g>
    <path
       d="m -551.34062,-30.602531 c -64.18398,0 -116.23624,52.045117 -116.23624,116.250511 0,51.35289 33.30517,94.92721 79.49851,110.30595 5.81609,1.06331 7.93558,-2.52625 7.93558,-5.60913 0,-2.76176 -0.0999,-10.06934 -0.157,-19.76758 -32.33463,7.02213 -39.15694,-15.58571 -39.15694,-15.58571 -5.28801,-13.43054 -12.90959,-17.00583 -12.90959,-17.00583 -10.5546,-7.20767 0.79927,-7.06495 0.79927,-7.06495 11.66787,0.82068 17.8051,11.98187 17.8051,11.98187 10.36906,17.76228 27.21075,12.63127 33.83325,9.65543 1.05617,-7.5074 4.06056,-12.63127 7.37894,-15.53575 -25.81203,-2.94016 -52.95143,-12.90959 -52.95143,-57.45444 0,-12.695498 4.53156,-23.064558 11.9676,-31.192816 -1.1989,-2.94016 -5.1881,-14.757891 1.14181,-30.764637 0,0 9.75533,-3.125704 31.96354,11.910503 9.27006,-2.576208 19.21808,-3.860744 29.10187,-3.910698 9.87666,0.05138 19.81754,1.33449 29.10188,3.910698 22.19398,-15.036207 31.93505,-11.910503 31.93505,-11.910503 6.34418,16.006746 2.35498,27.824477 1.16322,30.764637 7.4503,8.128258 11.94618,18.497318 11.94618,31.192816 0,44.65903 -27.18221,54.48574 -53.0728,57.36167 4.1676,3.58956 7.88562,10.68306 7.88562,21.53025 0,15.53575 -0.14272,28.07425 -0.14272,31.88504 0,3.11143 2.09807,6.72953 7.99272,5.59486 46.15766,-15.40729 79.43428,-58.94592 79.43428,-110.29168 0,-64.205394 -52.05225,-116.250511 -116.2577,-116.250511"
       style="fill:none;fill-opacity:1;fill-rule:evenodd;stroke:#000022;stroke-width:7.5;stroke-miterlimit:4;stroke-dasharray:none;stroke-opacity:1"
       id="path24"
       inkscape:connector-curvature="0" />
    <polygon
       style="fill:none;stroke:#0a0a0a;stroke-width:1.38316953;stroke-linecap:round;stroke-linejoin:round;stroke-miterlimit:10;stroke-dasharray:none;stroke-opacity:1"
       points="6,21 44,21 47,29 25,45 3,29 "
       id="polygon8"
       transform="matrix(5.3786437,0,0,5.3786437,-408.37016,-50.306552)" />
    <polygon
       style="fill:none;stroke:#0a0a0a;stroke-width:1.38316953;stroke-linecap:round;stroke-linejoin:round;stroke-miterlimit:10;stroke-dasharray:none;stroke-opacity:1"
       points="44,21 25,45 12,5 6,21 25,45 38,5 "
       id="polygon10"
       transform="matrix(5.3786437,0,0,5.3786437,-408.37016,-50.306552)" />
  </g>
  <g
     inkscape:groupmode="layer"
     id="layer3"
     inkscape:label="Layer 3"
     transform="translate(396.4794,36.602531)">
    <ellipse
       style="fill:#ffffff;fill-opacity:1;stroke:#000022;stroke-width:7.5;stroke-linecap:butt;stroke-linejoin:miter;stroke-miterlimit:4;stroke-dasharray:none;stroke-opacity:1"
       id="path4337"
       cy="23.480648"
       cx="-24.166206"
       rx="23.002689"
       ry="22.807997" />
    <rect
       style="fill:#ffffff;fill-opacity:1;stroke:#000022;stroke-width:7.5;stroke-linecap:butt;stroke-linejoin:miter;stroke-miterlimit:4;stroke-dasharray:none;stroke-opacity:1"
       id="rect4341"
       width="34.422565"
       height="111.84269"
       x="-40.723846"
       y="58.336407"
       ry="0" />
    <path
       style="fill:#ffffff;fill-opacity:1;fill-rule:evenodd;stroke:#000022;stroke-width:7.5;stroke-linecap:butt;stroke-linejoin:miter;stroke-miterlimit:4;stroke-dasharray:none;stroke-opacity:1"
       d="m 47.487536,74.152721 c 28.186605,-29.148536 73.557994,-18.015044 74.120114,26.882139 0.0331,3.16979 0.44675,56.12673 0.18232,68.9668 -11.90236,0.19406 -29.17502,0.0579 -33.577968,0.0509 0,-6.86427 -0.262836,-59.5699 -0.13185,-67.38847 -2.115816,-21.281606 -36.890808,-16.788314 -38.394377,2.84179 l 0.178745,64.58205 -34.462193,0.0108 0.228853,-110.032369 31.825026,-0.162138 z"
       id="path4360"
       inkscape:connector-curvature="0"
       sodipodi:nodetypes="ccccccccccc" />
  </g>
</svg>
