<?xml version="1.0" encoding="UTF-8" standalone="no"?>
<!-- Created with Inkscape (http://www.inkscape.org/) -->

<svg
   xmlns:dc="http://purl.org/dc/elements/1.1/"
   xmlns:cc="http://creativecommons.org/ns#"
   xmlns:rdf="http://www.w3.org/1999/02/22-rdf-syntax-ns#"
   xmlns:svg="http://www.w3.org/2000/svg"
   xmlns="http://www.w3.org/2000/svg"
   xmlns:sodipodi="http://sodipodi.sourceforge.net/DTD/sodipodi-0.dtd"
   xmlns:inkscape="http://www.inkscape.org/namespaces/inkscape"
   width="68.429642mm"
   height="68.429642mm"
   viewBox="0 0 242.46723 242.46723"
   id="svg2"
   version="1.1"
   inkscape:version="0.92.3 (2405546, 2018-03-11)"
   sodipodi:docname="tumblr.svg">
  <defs
     id="defs4" />
  <sodipodi:namedview
     id="base"
     pagecolor="#ffffff"
     bordercolor="#666666"
     borderopacity="1.0"
     inkscape:pageopacity="0.0"
     inkscape:pageshadow="2"
     inkscape:zoom="0.70710678"
     inkscape:cx="-87.568035"
     inkscape:cy="296.18864"
     inkscape:document-units="px"
     inkscape:current-layer="layer2"
     showgrid="false"
     fit-margin-top="0"
     fit-margin-left="0"
     fit-margin-right="0"
     fit-margin-bottom="0"
     inkscape:window-width="1920"
     inkscape:window-height="1016"
     inkscape:window-x="0"
     inkscape:window-y="27"
     inkscape:window-maximized="1"
     inkscape:document-rotation="0" />
  <metadata
     id="metadata7">
    <rdf:RDF>
      <cc:Work
         rdf:about="">
        <dc:format>image/svg+xml</dc:format>
        <dc:type
           rdf:resource="http://purl.org/dc/dcmitype/StillImage" />
        <dc:title></dc:title>
      </cc:Work>
    </rdf:RDF>
  </metadata>
  <g
     inkscape:groupmode="layer"
     id="layer2"
     inkscape:label="Layer 2"
     style="display:inline"
     transform="translate(-242.82892,39.691465)">
    <rect
       style="display:inline;fill:none;fill-opacity:1;stroke:#000022;stroke-width:7.5;stroke-linecap:butt;stroke-linejoin:miter;stroke-miterlimit:4;stroke-dasharray:none;stroke-opacity:1"
       id="rect3518"
       width="230.48239"
       height="230.33818"
       x="-75.056763"
       y="-28.98671"
       ry="22.130533" />
    <g
       transform="matrix(0.78390971,0,0,0.84173376,-416.24535,-249.56016)"
       id="g4876">
      <path
         d="m 633.9,812.04 c 112.46,0 173.96,-93.168 173.96,-173.96 0,-2.6463 -0.0539,-5.2806 -0.1726,-7.903 11.938,-8.6302 22.314,-19.4 30.498,-31.66 -10.955,4.8694 -22.9315,7.5224 -35.111,9.6255 12.1855,-7.9443 22.314,-19.543 26.886,-33.817 -11.813,7.0031 -24.895,12.093 -38.824,14.841 -11.157,-11.884 -27.041,-19.317 -44.629,-19.317 -33.764,0 -61.144,27.381 -61.144,61.132 0,4.7978 0.5364,9.4646 1.5854,13.941 -50.815,-2.5569 -95.874,-26.886 -126.03,-63.88 -5.2508,9.0354 -8.2785,19.531 -8.2785,30.73 0,21.212 10.794,39.938 27.208,50.893 -10.031,-0.30992 -19.454,-3.0635 -27.69,-7.6468 -0.009,0.25652 -0.009,0.50661 -0.009,0.78077 0,29.61 23.19632,53.62489 49.051,59.934 -5.1376,1.4006 -10.543,2.1516 -16.122,2.1516 -3.9336,0 -7.766,-0.38716 -11.491,-1.1026 7.7838,24.293 30.355,41.971 57.115,42.465 -20.926,16.402 -30.01718,22.92648 -47.50413,24.36922 -11.31331,0.9334 -17.39969,0.78031 -24.12994,-0.13923 25.46801,19.11177 40.30207,28.55867 74.83507,28.55867"
         id="path4878"
         style="fill:none;fill-opacity:1;stroke:#000022;stroke-width:9.23295784;stroke-miterlimit:4;stroke-dasharray:none;stroke-opacity:1"
         inkscape:connector-curvature="0"
         sodipodi:nodetypes="cscccccssccsccscsccscc" />
    </g>
    <path
       d="m -274.24316,-30.602531 c -64.18398,0 -116.23624,52.045117 -116.23624,116.250511 0,51.35289 33.30517,94.92721 79.49851,110.30595 5.81609,1.06331 7.93558,-2.52625 7.93558,-5.60913 0,-2.76176 -0.0999,-10.06934 -0.157,-19.76758 -32.33463,7.02213 -39.15694,-15.58571 -39.15694,-15.58571 -5.28801,-13.43054 -12.90959,-17.00583 -12.90959,-17.00583 -10.5546,-7.20767 0.79927,-7.06495 0.79927,-7.06495 11.66787,0.82068 17.8051,11.98187 17.8051,11.98187 10.36906,17.76228 27.21075,12.63127 33.83325,9.65543 1.05617,-7.5074 4.06056,-12.63127 7.37894,-15.53575 -25.81203,-2.94016 -52.95143,-12.90959 -52.95143,-57.45444 0,-12.695498 4.53156,-23.064558 11.9676,-31.192816 -1.1989,-2.94016 -5.1881,-14.757891 1.14181,-30.764637 0,0 9.75533,-3.125704 31.96354,11.910503 9.27006,-2.576208 19.21808,-3.860744 29.10187,-3.910698 9.87666,0.05138 19.81754,1.33449 29.10188,3.910698 22.19398,-15.036207 31.93505,-11.910503 31.93505,-11.910503 6.34418,16.006746 2.35498,27.824477 1.16322,30.764637 7.4503,8.128258 11.94618,18.497318 11.94618,31.192816 0,44.65903 -27.18221,54.48574 -53.0728,57.36167 4.1676,3.58956 7.88562,10.68306 7.88562,21.53025 0,15.53575 -0.14272,28.07425 -0.14272,31.88504 0,3.11143 2.09807,6.72953 7.99272,5.59486 46.15766,-15.40729 79.43428,-58.94592 79.43428,-110.29168 0,-64.205394 -52.05225,-116.250511 -116.2577,-116.250511"
       style="fill:none;fill-opacity:1;fill-rule:evenodd;stroke:#000022;stroke-width:7.5;stroke-miterlimit:4;stroke-dasharray:none;stroke-opacity:1"
       id="path24"
       inkscape:connector-curvature="0" />
    <rect
       style="fill:none;fill-opacity:1;stroke:none;stroke-width:7.65295982;stroke-miterlimit:4;stroke-dasharray:none;stroke-opacity:1"
       id="rect963"
       width="242.46724"
       height="236.83249"
       x="9.4836826"
       y="212.54675" />
    <g
       id="g1209"
       transform="matrix(11.160028,0,0,11.160028,576.48059,-58.334606)">
      <g
         id="g1138">
        <path
           id="path1106"
           d="m 17.859263,2.0217125 c 2.017,0.053 3.026,1.198 3.036,3.438 0,0.147 -0.005,0.3 -0.013,0.457 -0.089,1.899 -1.502,4.4860005 -4.245,7.7600005 -2.829,3.43 -5.229,5.147 -7.2,5.156 -1.226,0 -2.244,-1.05 -3.061,-3.151 l -0.858,-2.88 -0.848,-2.8760005 c -0.625,-2.084 -1.293,-3.124 -2.006,-3.124 -0.156,0 -0.697,0.304 -1.626,0.91 l -0.98999999,-1.171 1.53599999,-1.276 1.511,-1.263 c 1.353,-1.084 2.382,-1.67 3.088,-1.757 0.094,-0.01 0.188,-0.013 0.284,-0.013 1.449,0 2.354,1.041 2.709,3.124 0.198,1.188 0.362,2.154 0.495,2.896 0.129,0.744 0.237,1.262 0.323,1.557 0.479,1.9700005 0.995,2.9600005 1.55,2.9680005 0.426,0 1.082,-0.642 1.968,-1.926 0.866,-1.3190005 1.332,-2.2960005 1.392,-2.9320005 0.019,-0.129 0.026,-0.25 0.026,-0.362 0,-0.861 -0.474,-1.29 -1.418,-1.29 -0.479,0 -0.99,0.102 -1.537,0.299 0.98,-3.021 2.864,-4.534 5.65,-4.544 0.078,0 0.155,0 0.234,0 z"
           inkscape:connector-curvature="0"
           style="fill:none;stroke:#000022;stroke-width:0.6720413;stroke-miterlimit:4;stroke-dasharray:none;stroke-opacity:1" />
        <g
           id="g1108" />
        <g
           id="g1110" />
        <g
           id="g1112" />
        <g
           id="g1114" />
        <g
           id="g1116" />
        <g
           id="g1118" />
        <g
           id="g1120" />
        <g
           id="g1122" />
        <g
           id="g1124" />
        <g
           id="g1126" />
        <g
           id="g1128" />
        <g
           id="g1130" />
        <g
           id="g1132" />
        <g
           id="g1134" />
        <g
           id="g1136" />
      </g>
      <g
         id="g1140" />
      <g
         id="g1142" />
      <g
         id="g1144" />
      <g
         id="g1146" />
      <g
         id="g1148" />
      <g
         id="g1150" />
      <g
         id="g1152" />
      <g
         id="g1154" />
      <g
         id="g1156" />
      <g
         id="g1158" />
      <g
         id="g1160" />
      <g
         id="g1162" />
      <g
         id="g1164" />
      <g
         id="g1166" />
      <g
         id="g1168" />
    </g>
    <path
       style="fill:#000000;fill-opacity:1;stroke:none;stroke-width:1"
       d="M 130.81445 3.71875 A 125.86502 125.86502 0 0 0 4.9492188 129.58398 A 125.86502 125.86502 0 0 0 130.81445 255.44922 A 125.86502 125.86502 0 0 0 256.67969 129.58398 A 125.86502 125.86502 0 0 0 130.81445 3.71875 z M 136.44336 59.697266 L 136.44336 93.945312 L 163.30273 93.945312 L 163.30273 114.0918 L 136.38477 114.0918 L 136.38477 156.81055 C 136.38477 171.25827 151.22462 170.50858 160.18164 166.83789 L 166.65039 186.02734 C 146.91657 203.3524 102.95508 191.36838 102.95508 159.83203 L 102.95508 114.07031 L 89.25 114.07031 L 89.398438 96.683594 C 97.891291 92.429737 110.65393 89.317647 116.16797 59.931641 L 136.44336 59.697266 z "
       id="path871"
       transform="matrix(0.93749999,0,0,0.93749999,242.82892,-39.691465)" />
  </g>
  <g
     inkscape:groupmode="layer"
     id="layer3"
     inkscape:label="Layer 3"
     transform="translate(-242.82892,39.691465)">
    <ellipse
       style="fill:#ffffff;fill-opacity:1;stroke:#000022;stroke-width:7.5;stroke-linecap:butt;stroke-linejoin:miter;stroke-miterlimit:4;stroke-dasharray:none;stroke-opacity:1"
       id="path4337"
       cy="23.480648"
       cx="-24.166206"
       rx="23.002689"
       ry="22.807997" />
    <rect
       style="fill:#ffffff;fill-opacity:1;stroke:#000022;stroke-width:7.5;stroke-linecap:butt;stroke-linejoin:miter;stroke-miterlimit:4;stroke-dasharray:none;stroke-opacity:1"
       id="rect4341"
       width="34.422565"
       height="111.84269"
       x="-40.723846"
       y="58.336407"
       ry="0" />
    <path
       style="fill:#ffffff;fill-opacity:1;fill-rule:evenodd;stroke:#000022;stroke-width:7.5;stroke-linecap:butt;stroke-linejoin:miter;stroke-miterlimit:4;stroke-dasharray:none;stroke-opacity:1"
       d="m 47.487536,74.152721 c 28.186605,-29.148536 73.557994,-18.015044 74.120114,26.882139 0.0331,3.16979 0.44675,56.12673 0.18232,68.9668 -11.90236,0.19406 -29.17502,0.0579 -33.577968,0.0509 0,-6.86427 -0.262836,-59.5699 -0.13185,-67.38847 -2.115816,-21.281606 -36.890808,-16.788314 -38.394377,2.84179 l 0.178745,64.58205 -34.462193,0.0108 0.228853,-110.032369 31.825026,-0.162138 z"
       id="path4360"
       inkscape:connector-curvature="0"
       sodipodi:nodetypes="ccccccccccc" />
  </g>
</svg>
