<?xml version="1.0" encoding="UTF-8" standalone="no"?>
<!-- Created with Inkscape (http://www.inkscape.org/) -->

<svg
   xmlns:dc="http://purl.org/dc/elements/1.1/"
   xmlns:cc="http://creativecommons.org/ns#"
   xmlns:rdf="http://www.w3.org/1999/02/22-rdf-syntax-ns#"
   xmlns:svg="http://www.w3.org/2000/svg"
   xmlns="http://www.w3.org/2000/svg"
   xmlns:sodipodi="http://sodipodi.sourceforge.net/DTD/sodipodi-0.dtd"
   xmlns:inkscape="http://www.inkscape.org/namespaces/inkscape"
   width="67.163918mm"
   height="67.123222mm"
   viewBox="0 0 237.98238 237.83819"
   id="svg2"
   version="1.1"
   inkscape:version="0.92.3 (2405546, 2018-03-11)"
   sodipodi:docname="linkedin.svg">
  <defs
     id="defs4" />
  <sodipodi:namedview
     id="base"
     pagecolor="#ffffff"
     bordercolor="#666666"
     borderopacity="1.0"
     inkscape:pageopacity="0.0"
     inkscape:pageshadow="2"
     inkscape:zoom="2.0000001"
     inkscape:cx="10.003917"
     inkscape:cy="176.97826"
     inkscape:document-units="px"
     inkscape:current-layer="layer2"
     showgrid="false"
     fit-margin-top="0"
     fit-margin-left="0"
     fit-margin-right="0"
     fit-margin-bottom="0"
     inkscape:window-width="1920"
     inkscape:window-height="1016"
     inkscape:window-x="0"
     inkscape:window-y="27"
     inkscape:window-maximized="1"
     inkscape:document-rotation="0" />
  <metadata
     id="metadata7">
    <rdf:RDF>
      <cc:Work
         rdf:about="">
        <dc:format>image/svg+xml</dc:format>
        <dc:type
           rdf:resource="http://purl.org/dc/dcmitype/StillImage" />
        <dc:title />
      </cc:Work>
    </rdf:RDF>
  </metadata>
  <g
     inkscape:groupmode="layer"
     id="layer2"
     inkscape:label="Layer 2"
     style="display:inline"
     transform="translate(78.806763,32.73671)">
    <path
       style="display:inline;fill:#000000;fill-opacity:1;stroke:none;stroke-width:8;stroke-linecap:butt;stroke-linejoin:miter;stroke-miterlimit:4;stroke-dasharray:none;stroke-opacity:1"
       d="M 27.605469 4 C 14.527799 4 4 14.527799 4 27.605469 L 4 226.08789 C 4 239.16556 14.527799 249.69336 27.605469 249.69336 L 226.24219 249.69336 C 239.31986 249.69336 249.84766 239.16556 249.84766 226.08789 L 249.84766 27.605469 C 249.84766 14.527799 239.31986 4 226.24219 4 L 27.605469 4 z M 58.283203 35.636719 A 24.536201 24.328529 0 0 1 82.820312 59.964844 A 24.536201 24.328529 0 0 1 58.283203 84.292969 A 24.536201 24.328529 0 0 1 33.746094 59.964844 A 24.536201 24.328529 0 0 1 58.283203 35.636719 z M 172.7832 96.796875 C 194.35472 96.894438 213.40064 112.758 213.77539 142.68945 C 213.8107 146.07056 214.25276 202.55783 213.9707 216.25391 C 201.27485 216.4609 182.85077 216.31606 178.1543 216.30859 C 178.1543 208.98671 177.87395 152.76754 178.01367 144.42773 C 175.7568 121.72736 138.6624 126.52021 137.05859 147.45898 L 137.25 216.3457 L 100.49023 216.35742 L 100.73438 98.990234 L 134.67969 98.816406 L 134.71484 114.01562 C 145.98949 102.35621 159.84029 96.738337 172.7832 96.796875 z M 40.621094 97.144531 L 77.339844 97.144531 L 77.339844 216.44336 L 40.621094 216.44336 L 40.621094 97.144531 z "
       id="rect3518"
       transform="matrix(0.93750002,0,0,0.93750002,-78.806763,-32.73671)" />
    <g
       transform="matrix(0.93750001,0,0,0.93750001,-268.41493,-563.45025)"
       id="g4876">
      <path
         d="m 633.9,812.04 c 112.46,0 173.96,-93.168 173.96,-173.96 0,-2.6463 -0.0539,-5.2806 -0.1726,-7.903 11.938,-8.6302 22.314,-19.4 30.498,-31.66 -10.955,4.8694 -22.9315,7.5224 -35.111,9.6255 12.1855,-7.9443 22.314,-19.543 26.886,-33.817 -11.813,7.0031 -24.895,12.093 -38.824,14.841 -11.157,-11.884 -27.041,-19.317 -44.629,-19.317 -33.764,0 -61.144,27.381 -61.144,61.132 0,4.7978 0.5364,9.4646 1.5854,13.941 -50.815,-2.5569 -95.874,-26.886 -126.03,-63.88 -5.2508,9.0354 -8.2785,19.531 -8.2785,30.73 0,21.212 10.794,39.938 27.208,50.893 -10.031,-0.30992 -19.454,-3.0635 -27.69,-7.6468 -0.009,0.25652 -0.009,0.50661 -0.009,0.78077 0,29.61 23.19632,53.62489 49.051,59.934 -5.1376,1.4006 -10.543,2.1516 -16.122,2.1516 -3.9336,0 -7.766,-0.38716 -11.491,-1.1026 7.7838,24.293 30.355,41.971 57.115,42.465 -20.926,16.402 -47.287,26.171 -75.937,26.171 -4.929,0 -8.56086,-0.10358 -14.584,-0.84634 25.46801,19.11177 59.189,27.464 93.722,27.464"
         id="path4878"
         style="fill:none;fill-opacity:1;stroke:#000022;stroke-width:8;stroke-miterlimit:4;stroke-dasharray:none;stroke-opacity:1"
         inkscape:connector-curvature="0"
         sodipodi:nodetypes="cscccccssccsccscsccscc" />
    </g>
    <path
       d="m -274.24316,-30.602531 c -64.18398,0 -116.23624,52.045117 -116.23624,116.250511 0,51.35289 33.30517,94.92721 79.49851,110.30595 5.81609,1.06331 7.93558,-2.52625 7.93558,-5.60913 0,-2.76176 -0.0999,-10.06934 -0.157,-19.76758 -32.33463,7.02213 -39.15694,-15.58571 -39.15694,-15.58571 -5.28801,-13.43054 -12.90959,-17.00583 -12.90959,-17.00583 -10.5546,-7.20767 0.79927,-7.06495 0.79927,-7.06495 11.66787,0.82068 17.8051,11.98187 17.8051,11.98187 10.36906,17.76228 27.21075,12.63127 33.83325,9.65543 1.05617,-7.5074 4.06056,-12.63127 7.37894,-15.53575 -25.81203,-2.94016 -52.95143,-12.90959 -52.95143,-57.45444 0,-12.695498 4.53156,-23.064558 11.9676,-31.192816 -1.1989,-2.94016 -5.1881,-14.757891 1.14181,-30.764637 0,0 9.75533,-3.125704 31.96354,11.910503 9.27006,-2.576208 19.21808,-3.860744 29.10187,-3.910698 9.87666,0.05138 19.81754,1.33449 29.10188,3.910698 22.19398,-15.036207 31.93505,-11.910503 31.93505,-11.910503 6.34418,16.006746 2.35498,27.824477 1.16322,30.764637 7.4503,8.128258 11.94618,18.497318 11.94618,31.192816 0,44.65903 -27.18221,54.48574 -53.0728,57.36167 4.1676,3.58956 7.88562,10.68306 7.88562,21.53025 0,15.53575 -0.14272,28.07425 -0.14272,31.88504 0,3.11143 2.09807,6.72953 7.99272,5.59486 46.15766,-15.40729 79.43428,-58.94592 79.43428,-110.29168 0,-64.205394 -52.05225,-116.250511 -116.2577,-116.250511"
       style="fill:none;fill-opacity:1;fill-rule:evenodd;stroke:#000022;stroke-width:7.5;stroke-miterlimit:4;stroke-dasharray:none;stroke-opacity:1"
       id="path24"
       inkscape:connector-curvature="0" />
  </g>
  <g
     inkscape:groupmode="layer"
     id="layer3"
     inkscape:label="Layer 3"
     transform="translate(78.806763,32.73671)" />
</svg>
